<svg xmlns="http://www.w3.org/2000/svg" width="28" height="28" fill="none"><path fill="#fff" d="M7.324 14A6.683 6.683 0 0 0 14 20.676 6.683 6.683 0 0 0 20.676 14 6.683 6.683 0 0 0 14 7.324 6.683 6.683 0 0 0 7.324 14ZM14 9.99c2.21 0 4.01 1.8 4.01 4.01s-1.8 4.01-4.01 4.01A4.014 4.014 0 0 1 9.99 14c0-2.21 1.8-4.01 4.01-4.01Zm-1.336 13.343h2.667v4h-2.667v-4Zm0-22.666h2.667v4h-2.667v-4Zm-12 12h4v2.666h-4v-2.666Zm22.667 0h4v2.666h-4v-2.666ZM3.625 22.484l2.827-2.83 1.887 1.886-2.827 2.83-1.887-1.886ZM19.653 6.459l2.83-2.83 1.885 1.886-2.83 2.829-1.885-1.885ZM6.456 8.345l-2.83-2.829 1.887-1.885L8.34 6.46 6.456 8.345Zm17.912 14.14-1.885 1.886-2.83-2.83 1.886-1.885 2.829 2.83Z"/></svg>